# xmcd CD database file
#
# Track frame offsets:
#	150
#	15640
#	36199
#	54509
#	74520
#	99375
#	110874
#	134442
#	142035
#	166005
#	186975
#	205182
#
# Disc length: 2976 seconds
#
# Revision: 1
# Processed by: cddbd v1.5.1PL0 Copyright (c) Steve Scherf et al.
# Submitted via: CDex 1.51
#
DISCID=b00b9e0c
DTITLE=Opus 4, Antigua Jazz Band and Sandra Mianovich - Spirituals Blues and Jazz [CD #2)
DYEAR=2004
DGENRE=Jazz
TTITLE0=In a mellow tone
TTITLE1=Ain't misbehavin
TTITLE2=Moon river
TTITLE3=The shadow of your smile
TTITLE4=As time goes by
TTITLE5=Memory
TTITLE6=Black and tan fantasy
TTITLE7=Every time I feel the spirit
TTITLE8=Saint Louis blues
TTITLE9=Ellijah Rock
TTITLE10=Summertime
TTITLE11=When the saints go marchin' in
EXTD=YEAR: 2004
EXTT0=
EXTT1=
EXTT2=
EXTT3=
EXTT4=
EXTT5=
EXTT6=
EXTT7=
EXTT8=
EXTT9=
EXTT10=
EXTT11=
PLAYORDER=
